<svg width="17" height="16" viewBox="0 0 17 16" fill="none" xmlns="http://www.w3.org/2000/svg">
<path d="M8.43066 0C8.76574 0 9.09353 0.100395 9.37109 0.288086C9.64868 0.475888 9.81574 0.73482 9.94043 1.0459L11.3535 4.49902L11.418 4.54688L15.1357 4.82031C15.3552 4.83505 15.5696 4.89243 15.7666 4.99023C15.9636 5.08807 16.1398 5.22368 16.2842 5.38965C16.433 5.55863 16.5458 5.75618 16.6172 5.96973C16.6886 6.18327 16.7164 6.40928 16.6992 6.63379C16.682 6.85796 16.6205 7.07647 16.5176 7.27637C16.4144 7.47653 16.2715 7.65451 16.0986 7.79883L13.249 10.208V10.2637L14.1641 13.9092C14.1959 14.0432 14.2117 14.1806 14.2119 14.3184C14.2156 14.542 14.173 14.7647 14.0859 14.9707C13.9988 15.1766 13.869 15.3615 13.7061 15.5146C13.4379 15.7794 13.0885 15.9465 12.7139 15.9873C12.3392 16.0281 11.9615 15.9411 11.6426 15.7402L8.51172 13.7725H8.43066L5.21875 15.7402C4.90083 15.9419 4.52384 16.0305 4.14941 15.9912C3.77489 15.9518 3.42434 15.7869 3.15527 15.5234C2.99234 15.3703 2.86347 15.1845 2.77637 14.9785C2.68931 14.7726 2.64582 14.5507 2.64941 14.3271C2.65001 14.1866 2.66682 14.0462 2.69824 13.9092L3.56543 10.2559V10.1992L0.714844 7.79102C0.526385 7.63428 0.374583 7.43774 0.270508 7.21582C0.166429 6.99378 0.112213 6.75108 0.112305 6.50586C0.114439 6.09856 0.263086 5.70585 0.530274 5.39844C0.674644 5.23252 0.849892 5.09587 1.04688 4.99805C1.24377 4.90029 1.45841 4.8429 1.67773 4.82812L5.39551 4.55469L5.45996 4.50684L6.87305 1.05371C6.99774 0.742706 7.21272 0.475869 7.49023 0.288086C7.76778 0.100314 8.09557 6.45877e-05 8.43066 0ZM15.0713 6.48047V6.45801H15.0234L14.8926 6.44824L15.0713 6.48047Z" fill="#FFC633"/>
</svg>
