<svg width="18" height="16" viewBox="0 0 18 16" fill="none" xmlns="http://www.w3.org/2000/svg">
<path d="M8.76563 0.000488281C9.10081 0.000488281 9.42843 0.100763 9.70605 0.288574C9.98369 0.476407 10.1507 0.735241 10.2754 1.04639L11.6885 4.49854L11.7529 4.54639L15.4707 4.81982C15.6901 4.83456 15.9046 4.89292 16.1016 4.99072C16.2985 5.08855 16.4748 5.22424 16.6191 5.39014C16.7677 5.55895 16.8808 5.75597 16.9521 5.96924C17.0236 6.18279 17.0514 6.40878 17.0342 6.6333C17.017 6.85778 16.9557 7.07672 16.8525 7.27686C16.7494 7.47702 16.6064 7.65402 16.4336 7.79834L13.584 10.2075V10.2642L14.499 13.9087C14.5309 14.0429 14.5467 14.1809 14.5469 14.3188C14.5505 14.5424 14.5079 14.7643 14.4209 14.9702C14.3338 15.1762 14.204 15.3619 14.041 15.5151C13.7729 15.7798 13.4233 15.946 13.0488 15.9868C12.6742 16.0276 12.2964 15.9406 11.9775 15.7397L8.84668 13.7729H8.76563L5.55371 15.7397C5.23575 15.9415 4.85889 16.0301 4.48438 15.9907C4.10985 15.9513 3.7593 15.7864 3.49023 15.5229C3.32736 15.3698 3.1984 15.1839 3.11133 14.978C3.02428 14.7721 2.98072 14.5502 2.98438 14.3267C2.98497 14.1861 3.00178 14.0457 3.0332 13.9087L3.90039 10.2554V10.1997L1.0498 7.79053C0.861267 7.63373 0.709548 7.43737 0.605469 7.21533C0.501458 6.99342 0.447223 6.75143 0.447266 6.50635C0.449353 6.09893 0.597937 5.70543 0.865234 5.39795C1.00954 5.23215 1.18499 5.09633 1.38184 4.99854C1.57875 4.90076 1.79334 4.8424 2.0127 4.82764L5.73047 4.55518L5.79492 4.50635L7.20801 1.0542C7.33266 0.743179 7.54772 0.476394 7.8252 0.288574C8.10275 0.100794 8.43052 0.000544515 8.76563 0.000488281ZM8.69336 1.64795V1.68799L7.38477 5.18115C7.30232 5.38486 7.17982 5.56832 7.02734 5.72412V12.8628L7.83496 12.3276C8.10357 12.1647 8.41144 12.0786 8.72559 12.0786C9.03988 12.0786 9.34848 12.1646 9.61719 12.3276L12.7803 14.2944H12.8848V14.2544L12.002 10.6577C11.9696 10.5264 11.9528 10.3907 11.9531 10.2554C11.9537 10.0112 12.0078 9.76997 12.1104 9.54834C12.2129 9.32665 12.3621 9.12979 12.5479 8.97119L15.4063 6.56982V6.45752H15.3584L11.6328 6.18506C11.321 6.16151 11.0211 6.05114 10.7686 5.8667C10.5162 5.6823 10.3204 5.43085 10.2031 5.14111L8.79004 1.68799V1.64795H8.69336Z" fill="#FFC633"/>
</svg>
